<?xml version="1.0" encoding="UTF-8"?>
<svg xmlns="http://www.w3.org/2000/svg" viewBox="0 0 600 380" width="600" height="380" font-family="'Inter', 'Helvetica Neue', Arial, sans-serif">
  <rect width="600" height="380" fill="white"/>
  <line x1="60" y1="300" x2="580" y2="300" stroke="#e5e7eb" stroke-width="1"/>
  <text x="52" y="304" text-anchor="end" font-size="10" fill="#6b7280">0%</text>
  <line x1="60" y1="248" x2="580" y2="248" stroke="#e5e7eb" stroke-width="1"/>
  <text x="52" y="252" text-anchor="end" font-size="10" fill="#6b7280">20%</text>
  <line x1="60" y1="196" x2="580" y2="196" stroke="#e5e7eb" stroke-width="1"/>
  <text x="52" y="200" text-anchor="end" font-size="10" fill="#6b7280">40%</text>
  <line x1="60" y1="144" x2="580" y2="144" stroke="#e5e7eb" stroke-width="1"/>
  <text x="52" y="148" text-anchor="end" font-size="10" fill="#6b7280">60%</text>
  <line x1="60" y1="92" x2="580" y2="92" stroke="#e5e7eb" stroke-width="1"/>
  <text x="52" y="96" text-anchor="end" font-size="10" fill="#6b7280">80%</text>
  <line x1="60" y1="40" x2="580" y2="40" stroke="#e5e7eb" stroke-width="1"/>
  <text x="52" y="44" text-anchor="end" font-size="10" fill="#6b7280">100%</text>
  <rect x="71.33333333333334" y="137.64707868963185" width="34.666666666666664" height="162.35292131036815" fill="#ec4899" rx="2"/>
  <text x="88.66666666666667" y="133.64707868963185" text-anchor="middle" font-size="10" fill="#374151">62.4</text>
  <rect x="112" y="130.87706995422127" width="34.666666666666664" height="169.12293004577873" fill="#10b981" rx="2"/>
  <text x="129.33333333333334" y="126.87706995422127" text-anchor="middle" font-size="10" fill="#374151">65.0</text>
  <rect x="175.33333333333334" y="127.63145896656533" width="34.666666666666664" height="172.36854103343467" fill="#ec4899" rx="2"/>
  <text x="192.66666666666669" y="123.63145896656533" text-anchor="middle" font-size="10" fill="#374151">66.3</text>
  <rect x="216" y="116.03507030128583" width="34.666666666666664" height="183.96492969871417" fill="#10b981" rx="2"/>
  <text x="233.33333333333334" y="112.03507030128583" text-anchor="middle" font-size="10" fill="#374151">70.8</text>
  <rect x="279.3333333333333" y="71.96217494089836" width="34.666666666666664" height="228.03782505910164" fill="#ec4899" rx="2"/>
  <text x="296.66666666666663" y="67.96217494089836" text-anchor="middle" font-size="10" fill="#374151">87.7</text>
  <rect x="320" y="71.47867045793689" width="34.666666666666664" height="228.5213295420631" fill="#10b981" rx="2"/>
  <text x="337.3333333333333" y="67.47867045793689" text-anchor="middle" font-size="10" fill="#374151">87.9</text>
  <rect x="383.3333333333333" y="75.38120567375887" width="34.666666666666664" height="224.61879432624113" fill="#ec4899" rx="2"/>
  <text x="400.66666666666663" y="71.38120567375887" text-anchor="middle" font-size="10" fill="#374151">86.4</text>
  <rect x="424" y="73.29042293830224" width="34.666666666666664" height="226.70957706169776" fill="#10b981" rx="2"/>
  <text x="441.3333333333333" y="69.29042293830224" text-anchor="middle" font-size="10" fill="#374151">87.2</text>
  <rect x="487.3333333333333" y="71.96217494089836" width="34.666666666666664" height="228.03782505910164" fill="#ec4899" rx="2"/>
  <text x="504.66666666666663" y="67.96217494089836" text-anchor="middle" font-size="10" fill="#374151">87.7</text>
  <rect x="528" y="71.47867045793689" width="34.666666666666664" height="228.5213295420631" fill="#10b981" rx="2"/>
  <text x="545.3333333333334" y="67.47867045793689" text-anchor="middle" font-size="10" fill="#374151">87.9</text>
  <text x="112" y="316" text-anchor="end" font-size="11" fill="#374151" transform="rotate(-30, 112, 316)">bm25-raw</text>
  <text x="216" y="316" text-anchor="end" font-size="11" fill="#374151" transform="rotate(-30, 216, 316)">bm25-expanded</text>
  <text x="320" y="316" text-anchor="end" font-size="11" fill="#374151" transform="rotate(-30, 320, 316)">hybrid</text>
  <text x="424" y="316" text-anchor="end" font-size="11" fill="#374151" transform="rotate(-30, 424, 316)">hybrid-rerank</text>
  <text x="528" y="316" text-anchor="end" font-size="11" fill="#374151" transform="rotate(-30, 528, 316)">hybrid-decompose</text>
  <rect x="60" y="360" width="12" height="12" fill="#ec4899" rx="2"/>
  <text x="76" y="370" font-size="11" fill="#374151">MRR</text>
  <rect x="160" y="360" width="12" height="12" fill="#10b981" rx="2"/>
  <text x="176" y="370" font-size="11" fill="#374151">NDCG@10</text>
  <text x="300" y="24" text-anchor="middle" font-size="14" font-weight="bold" fill="#111827">Ranking Quality (MRR & NDCG@10)</text>

</svg>