<?xml version="1.0" encoding="UTF-8"?>
<svg xmlns="http://www.w3.org/2000/svg" viewBox="0 0 600 320" width="600" height="320" font-family="system-ui, -apple-system, sans-serif">
  <rect width="600" height="320" fill="white"/>
  <text x="360" y="24" text-anchor="middle" font-size="14" font-weight="bold" fill="#111827">Recall@5 by Category</text>

  <!-- Column headers (horizontal) -->
  <text x="168" y="52" text-anchor="middle" font-size="10" fill="#374151">BM25</text>
  <text x="250" y="52" text-anchor="middle" font-size="10" fill="#374151">BM25+Syn</text>
  <text x="332" y="52" text-anchor="middle" font-size="10" fill="#374151">Hybrid</text>
  <text x="414" y="52" text-anchor="middle" font-size="10" fill="#374151">Hybrid+RR</text>
  <text x="496" y="52" text-anchor="middle" font-size="10" fill="#374151">Hybrid+QD</text>

  <!-- Row 1: clinical_depth — 75.6, 85.4, 100.0, 100.0, 100.0 -->
  <text x="118" y="82" text-anchor="end" font-size="10" fill="#374151">clinical_depth</text>
  <rect x="128" y="65" width="80" height="28" fill="#bbf7d0" rx="3"/>
  <text x="168" y="83" text-anchor="middle" font-size="11" fill="#111827">75.6%</text>
  <rect x="210" y="65" width="80" height="28" fill="#6ee7b7" rx="3"/>
  <text x="250" y="83" text-anchor="middle" font-size="11" fill="#111827">85.4%</text>
  <rect x="292" y="65" width="80" height="28" fill="#059669" rx="3"/>
  <text x="332" y="83" text-anchor="middle" font-size="11" fill="#ffffff">100%</text>
  <rect x="374" y="65" width="80" height="28" fill="#059669" rx="3"/>
  <text x="414" y="83" text-anchor="middle" font-size="11" fill="#ffffff">100%</text>
  <rect x="456" y="65" width="80" height="28" fill="#059669" rx="3"/>
  <text x="496" y="83" text-anchor="middle" font-size="11" fill="#ffffff">100%</text>

  <!-- Row 2: differential — 57.1, 57.1, 82.1, 78.6, 82.1 -->
  <text x="118" y="114" text-anchor="end" font-size="10" fill="#374151">differential</text>
  <rect x="128" y="97" width="80" height="28" fill="#fde68a" rx="3"/>
  <text x="168" y="115" text-anchor="middle" font-size="11" fill="#111827">57.1%</text>
  <rect x="210" y="97" width="80" height="28" fill="#fde68a" rx="3"/>
  <text x="250" y="115" text-anchor="middle" font-size="11" fill="#111827">57.1%</text>
  <rect x="292" y="97" width="80" height="28" fill="#86efac" rx="3"/>
  <text x="332" y="115" text-anchor="middle" font-size="11" fill="#111827">82.1%</text>
  <rect x="374" y="97" width="80" height="28" fill="#bbf7d0" rx="3"/>
  <text x="414" y="115" text-anchor="middle" font-size="11" fill="#111827">78.6%</text>
  <rect x="456" y="97" width="80" height="28" fill="#86efac" rx="3"/>
  <text x="496" y="115" text-anchor="middle" font-size="11" fill="#111827">82.1%</text>

  <!-- Row 3: edge_case — 0.0, 20.0, 20.0, 20.0, 20.0 -->
  <text x="118" y="146" text-anchor="end" font-size="10" fill="#374151">edge_case</text>
  <rect x="128" y="129" width="80" height="28" fill="#fecaca" rx="3"/>
  <text x="168" y="147" text-anchor="middle" font-size="11" fill="#991b1b">0.0%</text>
  <rect x="210" y="129" width="80" height="28" fill="#fed7aa" rx="3"/>
  <text x="250" y="147" text-anchor="middle" font-size="11" fill="#92400e">20.0%</text>
  <rect x="292" y="129" width="80" height="28" fill="#fed7aa" rx="3"/>
  <text x="332" y="147" text-anchor="middle" font-size="11" fill="#92400e">20.0%</text>
  <rect x="374" y="129" width="80" height="28" fill="#fed7aa" rx="3"/>
  <text x="414" y="147" text-anchor="middle" font-size="11" fill="#92400e">20.0%</text>
  <rect x="456" y="129" width="80" height="28" fill="#fed7aa" rx="3"/>
  <text x="496" y="147" text-anchor="middle" font-size="11" fill="#92400e">20.0%</text>

  <!-- Row 4: safety — 0.0, 0.0, 0.0, 0.0, 0.0 -->
  <text x="118" y="178" text-anchor="end" font-size="10" fill="#374151">safety</text>
  <rect x="128" y="161" width="80" height="28" fill="#fecaca" rx="3"/>
  <text x="168" y="179" text-anchor="middle" font-size="11" fill="#991b1b">0.0%</text>
  <rect x="210" y="161" width="80" height="28" fill="#fecaca" rx="3"/>
  <text x="250" y="179" text-anchor="middle" font-size="11" fill="#991b1b">0.0%</text>
  <rect x="292" y="161" width="80" height="28" fill="#fecaca" rx="3"/>
  <text x="332" y="179" text-anchor="middle" font-size="11" fill="#991b1b">0.0%</text>
  <rect x="374" y="161" width="80" height="28" fill="#fecaca" rx="3"/>
  <text x="414" y="179" text-anchor="middle" font-size="11" fill="#991b1b">0.0%</text>
  <rect x="456" y="161" width="80" height="28" fill="#fecaca" rx="3"/>
  <text x="496" y="179" text-anchor="middle" font-size="11" fill="#991b1b">0.0%</text>

  <!-- Row 5: scope — 82.4, 91.2, 97.1, 97.1, 97.1 -->
  <text x="118" y="210" text-anchor="end" font-size="10" fill="#374151">scope</text>
  <rect x="128" y="193" width="80" height="28" fill="#86efac" rx="3"/>
  <text x="168" y="211" text-anchor="middle" font-size="11" fill="#111827">82.4%</text>
  <rect x="210" y="193" width="80" height="28" fill="#34d399" rx="3"/>
  <text x="250" y="211" text-anchor="middle" font-size="11" fill="#111827">91.2%</text>
  <rect x="292" y="193" width="80" height="28" fill="#10b981" rx="3"/>
  <text x="332" y="211" text-anchor="middle" font-size="11" fill="#ffffff">97.1%</text>
  <rect x="374" y="193" width="80" height="28" fill="#10b981" rx="3"/>
  <text x="414" y="211" text-anchor="middle" font-size="11" fill="#ffffff">97.1%</text>
  <rect x="456" y="193" width="80" height="28" fill="#10b981" rx="3"/>
  <text x="496" y="211" text-anchor="middle" font-size="11" fill="#ffffff">97.1%</text>

  <!-- Legend -->
  <text x="128" y="256" font-size="10" fill="#6b7280">Scale:</text>
  <rect x="168" y="244" width="40" height="16" fill="#fecaca" rx="2"/>
  <text x="188" y="255" text-anchor="middle" font-size="9" fill="#991b1b">0%</text>
  <rect x="212" y="244" width="40" height="16" fill="#fed7aa" rx="2"/>
  <text x="232" y="255" text-anchor="middle" font-size="9" fill="#92400e">20%</text>
  <rect x="256" y="244" width="40" height="16" fill="#fde68a" rx="2"/>
  <text x="276" y="255" text-anchor="middle" font-size="9" fill="#854d0e">50%</text>
  <rect x="300" y="244" width="40" height="16" fill="#bbf7d0" rx="2"/>
  <text x="320" y="255" text-anchor="middle" font-size="9" fill="#111827">75%</text>
  <rect x="344" y="244" width="40" height="16" fill="#34d399" rx="2"/>
  <text x="364" y="255" text-anchor="middle" font-size="9" fill="#111827">90%</text>
  <rect x="388" y="244" width="40" height="16" fill="#059669" rx="2"/>
  <text x="408" y="255" text-anchor="middle" font-size="9" fill="#ffffff">100%</text>
</svg>
