<?xml version="1.0" encoding="UTF-8"?>
<svg xmlns="http://www.w3.org/2000/svg" viewBox="0 0 560 260" width="560" height="260" font-family="'Inter', 'Helvetica Neue', Arial, sans-serif">
  <rect width="560" height="260" fill="white"/>
  <text x="280" y="20" text-anchor="middle" font-size="14" font-weight="bold" fill="#111827">Recall@5 by Category (Heatmap)</text>
  <text x="180" y="72" text-anchor="end" font-size="10" fill="#374151" transform="rotate(-40, 180, 72)">bm25-raw</text>
  <text x="260" y="72" text-anchor="end" font-size="10" fill="#374151" transform="rotate(-40, 260, 72)">bm25-expanded</text>
  <text x="340" y="72" text-anchor="end" font-size="10" fill="#374151" transform="rotate(-40, 340, 72)">hybrid</text>
  <text x="420" y="72" text-anchor="end" font-size="10" fill="#374151" transform="rotate(-40, 420, 72)">hybrid-rerank</text>
  <text x="500" y="72" text-anchor="end" font-size="10" fill="#374151" transform="rotate(-40, 500, 72)">hybrid-decompose</text>
  <text x="132" y="100" text-anchor="end" font-size="10" fill="#374151">clinical_depth</text>
  <rect x="142" y="82" width="76" height="28" fill="rgb(50, 237, 50)" rx="3"/>
  <text x="180" y="100" text-anchor="middle" font-size="11" fill="#111827">75.6%</text>
  <rect x="222" y="82" width="76" height="28" fill="rgb(50, 244, 50)" rx="3"/>
  <text x="260" y="100" text-anchor="middle" font-size="11" fill="#111827">85.4%</text>
  <rect x="302" y="82" width="76" height="28" fill="rgb(50, 255, 50)" rx="3"/>
  <text x="340" y="100" text-anchor="middle" font-size="11" fill="#111827">100.0%</text>
  <rect x="382" y="82" width="76" height="28" fill="rgb(50, 255, 50)" rx="3"/>
  <text x="420" y="100" text-anchor="middle" font-size="11" fill="#111827">100.0%</text>
  <rect x="462" y="82" width="76" height="28" fill="rgb(50, 255, 50)" rx="3"/>
  <text x="500" y="100" text-anchor="middle" font-size="11" fill="#111827">100.0%</text>
  <text x="132" y="132" text-anchor="end" font-size="10" fill="#374151">differential</text>
  <rect x="142" y="114" width="76" height="28" fill="rgb(54, 223, 54)" rx="3"/>
  <text x="180" y="132" text-anchor="middle" font-size="11" fill="#111827">57.1%</text>
  <rect x="222" y="114" width="76" height="28" fill="rgb(54, 223, 54)" rx="3"/>
  <text x="260" y="132" text-anchor="middle" font-size="11" fill="#111827">57.1%</text>
  <rect x="302" y="114" width="76" height="28" fill="rgb(50, 242, 50)" rx="3"/>
  <text x="340" y="132" text-anchor="middle" font-size="11" fill="#111827">82.1%</text>
  <rect x="382" y="114" width="76" height="28" fill="rgb(50, 239, 50)" rx="3"/>
  <text x="420" y="132" text-anchor="middle" font-size="11" fill="#111827">78.6%</text>
  <rect x="462" y="114" width="76" height="28" fill="rgb(50, 242, 50)" rx="3"/>
  <text x="500" y="132" text-anchor="middle" font-size="11" fill="#111827">82.1%</text>
  <text x="132" y="164" text-anchor="end" font-size="10" fill="#374151">edge_case</text>
  <rect x="142" y="146" width="76" height="28" fill="rgb(200, 180, 200)" rx="3"/>
  <text x="180" y="164" text-anchor="middle" font-size="11" fill="#111827">0.0%</text>
  <rect x="222" y="146" width="76" height="28" fill="rgb(149, 195, 149)" rx="3"/>
  <text x="260" y="164" text-anchor="middle" font-size="11" fill="#111827">20.0%</text>
  <rect x="302" y="146" width="76" height="28" fill="rgb(149, 195, 149)" rx="3"/>
  <text x="340" y="164" text-anchor="middle" font-size="11" fill="#111827">20.0%</text>
  <rect x="382" y="146" width="76" height="28" fill="rgb(149, 195, 149)" rx="3"/>
  <text x="420" y="164" text-anchor="middle" font-size="11" fill="#111827">20.0%</text>
  <rect x="462" y="146" width="76" height="28" fill="rgb(149, 195, 149)" rx="3"/>
  <text x="500" y="164" text-anchor="middle" font-size="11" fill="#111827">20.0%</text>
  <text x="132" y="196" text-anchor="end" font-size="10" fill="#374151">safety</text>
  <rect x="142" y="178" width="76" height="28" fill="rgb(200, 180, 200)" rx="3"/>
  <text x="180" y="196" text-anchor="middle" font-size="11" fill="#111827">0.0%</text>
  <rect x="222" y="178" width="76" height="28" fill="rgb(200, 180, 200)" rx="3"/>
  <text x="260" y="196" text-anchor="middle" font-size="11" fill="#111827">0.0%</text>
  <rect x="302" y="178" width="76" height="28" fill="rgb(200, 180, 200)" rx="3"/>
  <text x="340" y="196" text-anchor="middle" font-size="11" fill="#111827">0.0%</text>
  <rect x="382" y="178" width="76" height="28" fill="rgb(200, 180, 200)" rx="3"/>
  <text x="420" y="196" text-anchor="middle" font-size="11" fill="#111827">0.0%</text>
  <rect x="462" y="178" width="76" height="28" fill="rgb(200, 180, 200)" rx="3"/>
  <text x="500" y="196" text-anchor="middle" font-size="11" fill="#111827">0.0%</text>
  <text x="132" y="228" text-anchor="end" font-size="10" fill="#374151">scope</text>
  <rect x="142" y="210" width="76" height="28" fill="rgb(50, 242, 50)" rx="3"/>
  <text x="180" y="228" text-anchor="middle" font-size="11" fill="#111827">82.4%</text>
  <rect x="222" y="210" width="76" height="28" fill="rgb(50, 248, 50)" rx="3"/>
  <text x="260" y="228" text-anchor="middle" font-size="11" fill="#111827">91.2%</text>
  <rect x="302" y="210" width="76" height="28" fill="rgb(50, 253, 50)" rx="3"/>
  <text x="340" y="228" text-anchor="middle" font-size="11" fill="#111827">97.1%</text>
  <rect x="382" y="210" width="76" height="28" fill="rgb(50, 253, 50)" rx="3"/>
  <text x="420" y="228" text-anchor="middle" font-size="11" fill="#111827">97.1%</text>
  <rect x="462" y="210" width="76" height="28" fill="rgb(50, 253, 50)" rx="3"/>
  <text x="500" y="228" text-anchor="middle" font-size="11" fill="#111827">97.1%</text>

</svg>