<?xml version="1.0" encoding="UTF-8"?>
<svg xmlns="http://www.w3.org/2000/svg" viewBox="0 0 650 400" width="650" height="400" font-family="system-ui, -apple-system, sans-serif">
  <rect width="650" height="400" fill="white"/>
  <text x="325" y="24" text-anchor="middle" font-size="14" font-weight="bold" fill="#111827">Per-Turn Quality Scores (1-5 scale, 95% CI)</text>

  <!-- Y axis grid lines: 1-5 scale, y=40(5) to y=290(1), 62.5px per unit -->
  <line x1="70" y1="290" x2="610" y2="290" stroke="#e5e7eb" stroke-width="1"/>
  <text x="62" y="294" text-anchor="end" font-size="10" fill="#6b7280">1</text>
  <line x1="70" y1="228" x2="610" y2="228" stroke="#e5e7eb" stroke-width="1"/>
  <text x="62" y="232" text-anchor="end" font-size="10" fill="#6b7280">2</text>
  <line x1="70" y1="165" x2="610" y2="165" stroke="#e5e7eb" stroke-width="1"/>
  <text x="62" y="169" text-anchor="end" font-size="10" fill="#6b7280">3</text>
  <line x1="70" y1="103" x2="610" y2="103" stroke="#e5e7eb" stroke-width="1"/>
  <text x="62" y="107" text-anchor="end" font-size="10" fill="#6b7280">4</text>
  <line x1="70" y1="40" x2="610" y2="40" stroke="#e5e7eb" stroke-width="1"/>
  <text x="62" y="44" text-anchor="end" font-size="10" fill="#6b7280">5</text>

  <!-- Relevance: 4.91, CI [4.80, 5.00] -->
  <rect x="102" y="46" width="79" height="244" fill="#0f766e" rx="3" opacity="0.85"/>
  <line x1="142" y1="53" x2="142" y2="40" stroke="#374151" stroke-width="2"/>
  <line x1="136" y1="40" x2="148" y2="40" stroke="#374151" stroke-width="2"/>
  <line x1="136" y1="53" x2="148" y2="53" stroke="#374151" stroke-width="2"/>
  <text x="142" y="36" text-anchor="middle" font-size="12" font-weight="bold" fill="#374151">4.91</text>
  <text x="142" y="320" text-anchor="middle" font-size="11" fill="#374151">Relevance</text>

  <!-- Groundedness: 4.55, CI [4.43, 4.66] -->
  <rect x="237" y="68" width="79" height="222" fill="#d97706" rx="3" opacity="0.85"/>
  <line x1="277" y1="76" x2="277" y2="61" stroke="#374151" stroke-width="2"/>
  <line x1="271" y1="61" x2="283" y2="61" stroke="#374151" stroke-width="2"/>
  <line x1="271" y1="76" x2="283" y2="76" stroke="#374151" stroke-width="2"/>
  <text x="277" y="57" text-anchor="middle" font-size="12" font-weight="bold" fill="#374151">4.55</text>
  <text x="277" y="320" text-anchor="middle" font-size="11" fill="#374151">Groundedness</text>

  <!-- Tone: 4.96, CI [4.90, 5.00] -->
  <rect x="372" y="43" width="79" height="247" fill="#6366f1" rx="3" opacity="0.85"/>
  <line x1="412" y1="46" x2="412" y2="40" stroke="#374151" stroke-width="2"/>
  <line x1="406" y1="40" x2="418" y2="40" stroke="#374151" stroke-width="2"/>
  <line x1="406" y1="46" x2="418" y2="46" stroke="#374151" stroke-width="2"/>
  <text x="412" y="36" text-anchor="middle" font-size="12" font-weight="bold" fill="#374151">4.96</text>
  <text x="412" y="320" text-anchor="middle" font-size="11" fill="#374151">Tone</text>

  <!-- Safety: 4.98, CI [4.95, 5.00] -->
  <rect x="507" y="41" width="79" height="249" fill="#ec4899" rx="3" opacity="0.85"/>
  <line x1="547" y1="43" x2="547" y2="40" stroke="#374151" stroke-width="2"/>
  <line x1="541" y1="40" x2="553" y2="40" stroke="#374151" stroke-width="2"/>
  <line x1="541" y1="43" x2="553" y2="43" stroke="#374151" stroke-width="2"/>
  <text x="547" y="36" text-anchor="middle" font-size="12" font-weight="bold" fill="#374151">4.98</text>
  <text x="547" y="320" text-anchor="middle" font-size="11" fill="#374151">Safety</text>
</svg>
