<?xml version="1.0" encoding="UTF-8"?>
<svg xmlns="http://www.w3.org/2000/svg" viewBox="0 0 550 340" width="550" height="340" font-family="'Inter', 'Helvetica Neue', Arial, sans-serif">
  <rect width="550" height="340" fill="white"/>
  <line x1="60" y1="260" x2="530" y2="260" stroke="#e5e7eb" stroke-width="1"/>
  <text x="52" y="264" text-anchor="end" font-size="10" fill="#6b7280">0%</text>
  <line x1="60" y1="216" x2="530" y2="216" stroke="#e5e7eb" stroke-width="1"/>
  <text x="52" y="220" text-anchor="end" font-size="10" fill="#6b7280">20%</text>
  <line x1="60" y1="172" x2="530" y2="172" stroke="#e5e7eb" stroke-width="1"/>
  <text x="52" y="176" text-anchor="end" font-size="10" fill="#6b7280">40%</text>
  <line x1="60" y1="128" x2="530" y2="128" stroke="#e5e7eb" stroke-width="1"/>
  <text x="52" y="132" text-anchor="end" font-size="10" fill="#6b7280">60%</text>
  <line x1="60" y1="84" x2="530" y2="84" stroke="#e5e7eb" stroke-width="1"/>
  <text x="52" y="88" text-anchor="end" font-size="10" fill="#6b7280">80%</text>
  <line x1="60" y1="40" x2="530" y2="40" stroke="#e5e7eb" stroke-width="1"/>
  <text x="52" y="44" text-anchor="end" font-size="10" fill="#6b7280">100%</text>
  <rect x="77" y="184.8780487804878" width="60" height="75.1219512195122" fill="#ef4444" rx="3" opacity="0.85"/>
  <text x="107" y="178.8780487804878" text-anchor="middle" font-size="11" font-weight="bold" fill="#374151">34.1%</text>
  <text x="107" y="276" text-anchor="end" font-size="10" fill="#374151" transform="rotate(-30, 107, 276)">clinical_depth</text>
  <rect x="171" y="165.71428571428572" width="60" height="94.28571428571428" fill="#ef4444" rx="3" opacity="0.85"/>
  <text x="201" y="159.71428571428572" text-anchor="middle" font-size="11" font-weight="bold" fill="#374151">42.9%</text>
  <text x="201" y="276" text-anchor="end" font-size="10" fill="#374151" transform="rotate(-30, 201, 276)">differential</text>
  <rect x="265" y="260" width="60" height="0" fill="#10b981" rx="3" opacity="0.85"/>
  <text x="295" y="254" text-anchor="middle" font-size="11" font-weight="bold" fill="#374151">0.0%</text>
  <text x="295" y="276" text-anchor="end" font-size="10" fill="#374151" transform="rotate(-30, 295, 276)">edge_case</text>
  <rect x="359" y="235.55555555555554" width="60" height="24.444444444444443" fill="#10b981" rx="3" opacity="0.85"/>
  <text x="389" y="229.55555555555554" text-anchor="middle" font-size="11" font-weight="bold" fill="#374151">11.1%</text>
  <text x="389" y="276" text-anchor="end" font-size="10" fill="#374151" transform="rotate(-30, 389, 276)">safety</text>
  <rect x="453" y="208.23529411764707" width="60" height="51.76470588235294" fill="#f59e0b" rx="3" opacity="0.85"/>
  <text x="483" y="202.23529411764707" text-anchor="middle" font-size="11" font-weight="bold" fill="#374151">23.5%</text>
  <text x="483" y="276" text-anchor="end" font-size="10" fill="#374151" transform="rotate(-30, 483, 276)">scope</text>
  <text x="275" y="24" text-anchor="middle" font-size="14" font-weight="bold" fill="#111827">Hallucination Rate by Category</text>

</svg>