<?xml version="1.0" encoding="UTF-8"?>
<svg xmlns="http://www.w3.org/2000/svg" viewBox="0 0 500 320" width="500" height="320" font-family="'Inter', 'Helvetica Neue', Arial, sans-serif">
  <rect width="500" height="320" fill="white"/>
  <rect x="77" y="114.49106771915248" width="50" height="125.50893228084752" fill="#0f766e" rx="2"/>
  <text x="102" y="108.49106771915248" text-anchor="middle" font-size="11" fill="#374151">85ms</text>
  <text x="102" y="256" text-anchor="end" font-size="10" fill="#374151" transform="rotate(-30, 102, 256)">bm25-raw</text>
  <rect x="161" y="119.5042237917186" width="50" height="120.4957762082814" fill="#d97706" rx="2"/>
  <text x="186" y="113.5042237917186" text-anchor="middle" font-size="11" fill="#374151">81ms</text>
  <text x="186" y="256" text-anchor="end" font-size="10" fill="#374151" transform="rotate(-30, 186, 256)">bm25-expanded</text>
  <rect x="245" y="104.92175598947514" width="50" height="135.07824401052486" fill="#6366f1" rx="2"/>
  <text x="270" y="98.92175598947514" text-anchor="middle" font-size="11" fill="#374151">91ms</text>
  <text x="270" y="256" text-anchor="end" font-size="10" fill="#374151" transform="rotate(-30, 270, 256)">hybrid</text>
  <rect x="329" y="73.33333333333331" width="50" height="166.66666666666669" fill="#ec4899" rx="2"/>
  <text x="354" y="67.33333333333331" text-anchor="middle" font-size="11" fill="#374151">112ms</text>
  <text x="354" y="256" text-anchor="end" font-size="10" fill="#374151" transform="rotate(-30, 354, 256)">hybrid-rerank</text>
  <rect x="413" y="104.67248303559063" width="50" height="135.32751696440937" fill="#10b981" rx="2"/>
  <text x="438" y="98.67248303559063" text-anchor="middle" font-size="11" fill="#374151">91ms</text>
  <text x="438" y="256" text-anchor="end" font-size="10" fill="#374151" transform="rotate(-30, 438, 256)">hybrid-decompose</text>
  <text x="250" y="24" text-anchor="middle" font-size="14" font-weight="bold" fill="#111827">Average Latency per Configuration</text>

</svg>