<?xml version="1.0" encoding="UTF-8"?>
<svg xmlns="http://www.w3.org/2000/svg" viewBox="0 0 600 400" width="600" height="400" font-family="system-ui, -apple-system, sans-serif">
  <rect width="600" height="400" fill="white"/>
  <text x="300" y="24" text-anchor="middle" font-size="14" font-weight="bold" fill="#111827">Response Quality Scores (1-5 scale, 95% CI)</text>

  <!-- Y axis grid lines: 1-5 scale, y=40(5) to y=290(1), 62.5px per unit -->
  <line x1="70" y1="290" x2="560" y2="290" stroke="#e5e7eb" stroke-width="1"/>
  <text x="62" y="294" text-anchor="end" font-size="10" fill="#6b7280">1</text>
  <line x1="70" y1="228" x2="560" y2="228" stroke="#e5e7eb" stroke-width="1"/>
  <text x="62" y="232" text-anchor="end" font-size="10" fill="#6b7280">2</text>
  <line x1="70" y1="165" x2="560" y2="165" stroke="#e5e7eb" stroke-width="1"/>
  <text x="62" y="169" text-anchor="end" font-size="10" fill="#6b7280">3</text>
  <line x1="70" y1="103" x2="560" y2="103" stroke="#e5e7eb" stroke-width="1"/>
  <text x="62" y="107" text-anchor="end" font-size="10" fill="#6b7280">4</text>
  <line x1="70" y1="40" x2="560" y2="40" stroke="#e5e7eb" stroke-width="1"/>
  <text x="62" y="44" text-anchor="end" font-size="10" fill="#6b7280">5</text>

  <!-- Correctness: 4.33, CI [4.13, 4.52] -->
  <rect x="104" y="82" width="72" height="208" fill="#0f766e" rx="3" opacity="0.85"/>
  <line x1="140" y1="94" x2="140" y2="70" stroke="#374151" stroke-width="2"/>
  <line x1="134" y1="70" x2="146" y2="70" stroke="#374151" stroke-width="2"/>
  <line x1="134" y1="94" x2="146" y2="94" stroke="#374151" stroke-width="2"/>
  <text x="140" y="66" text-anchor="middle" font-size="12" font-weight="bold" fill="#374151">4.33</text>
  <text x="140" y="320" text-anchor="middle" font-size="11" fill="#374151">Correctness</text>

  <!-- Completeness: 4.38, CI [4.18, 4.58] -->
  <rect x="224" y="79" width="72" height="211" fill="#d97706" rx="3" opacity="0.85"/>
  <line x1="260" y1="91" x2="260" y2="66" stroke="#374151" stroke-width="2"/>
  <line x1="254" y1="66" x2="266" y2="66" stroke="#374151" stroke-width="2"/>
  <line x1="254" y1="91" x2="266" y2="91" stroke="#374151" stroke-width="2"/>
  <text x="260" y="62" text-anchor="middle" font-size="12" font-weight="bold" fill="#374151">4.38</text>
  <text x="260" y="320" text-anchor="middle" font-size="11" fill="#374151">Completeness</text>

  <!-- Grounding: 4.26, CI [4.05, 4.46] -->
  <rect x="344" y="86" width="72" height="204" fill="#6366f1" rx="3" opacity="0.85"/>
  <line x1="380" y1="100" x2="380" y2="74" stroke="#374151" stroke-width="2"/>
  <line x1="374" y1="74" x2="386" y2="74" stroke="#374151" stroke-width="2"/>
  <line x1="374" y1="100" x2="386" y2="100" stroke="#374151" stroke-width="2"/>
  <text x="380" y="70" text-anchor="middle" font-size="12" font-weight="bold" fill="#374151">4.26</text>
  <text x="380" y="320" text-anchor="middle" font-size="11" fill="#374151">Grounding</text>

  <!-- Safety: 4.77, CI [4.60, 4.91] -->
  <rect x="464" y="54" width="72" height="236" fill="#ec4899" rx="3" opacity="0.85"/>
  <line x1="500" y1="65" x2="500" y2="46" stroke="#374151" stroke-width="2"/>
  <line x1="494" y1="46" x2="506" y2="46" stroke="#374151" stroke-width="2"/>
  <line x1="494" y1="65" x2="506" y2="65" stroke="#374151" stroke-width="2"/>
  <text x="500" y="42" text-anchor="middle" font-size="12" font-weight="bold" fill="#374151">4.77</text>
  <text x="500" y="320" text-anchor="middle" font-size="11" fill="#374151">Safety</text>
</svg>
