<?xml version="1.0" encoding="UTF-8"?>
<svg xmlns="http://www.w3.org/2000/svg" viewBox="0 0 600 380" width="600" height="380" font-family="'Inter', 'Helvetica Neue', Arial, sans-serif">
  <rect width="600" height="380" fill="white"/>
  <line x1="60" y1="272" x2="580" y2="272" stroke="#e5e7eb" stroke-width="1"/>
  <text x="52" y="276" text-anchor="end" font-size="10" fill="#6b7280">1</text>
  <line x1="60" y1="214" x2="580" y2="214" stroke="#e5e7eb" stroke-width="1"/>
  <text x="52" y="218" text-anchor="end" font-size="10" fill="#6b7280">2</text>
  <line x1="60" y1="156" x2="580" y2="156" stroke="#e5e7eb" stroke-width="1"/>
  <text x="52" y="160" text-anchor="end" font-size="10" fill="#6b7280">3</text>
  <line x1="60" y1="98" x2="580" y2="98" stroke="#e5e7eb" stroke-width="1"/>
  <text x="52" y="102" text-anchor="end" font-size="10" fill="#6b7280">4</text>
  <line x1="60" y1="40" x2="580" y2="40" stroke="#e5e7eb" stroke-width="1"/>
  <text x="52" y="44" text-anchor="end" font-size="10" fill="#6b7280">5</text>
  <rect x="88.88888888888889" y="79.02803738317758" width="72.22222222222221" height="250.97196261682242" fill="#0f766e" rx="3" opacity="0.85"/>
  <line x1="125" y1="67.64485981308411" x2="125" y2="90.41121495327104" stroke="#374151" stroke-width="2"/>
  <line x1="119" y1="67.64485981308411" x2="131" y2="67.64485981308411" stroke="#374151" stroke-width="2"/>
  <line x1="119" y1="90.41121495327104" x2="131" y2="90.41121495327104" stroke="#374151" stroke-width="2"/>
  <text x="125" y="71.02803738317758" text-anchor="middle" font-size="12" font-weight="bold" fill="#374151">4.33</text>
  <text x="125" y="350" text-anchor="middle" font-size="11" fill="#374151">Correctness</text>
  <rect x="218.88888888888889" y="75.77570093457945" width="72.22222222222221" height="254.22429906542055" fill="#d97706" rx="3" opacity="0.85"/>
  <line x1="255" y1="64.39252336448601" x2="255" y2="87.70093457943923" stroke="#374151" stroke-width="2"/>
  <line x1="249" y1="64.39252336448601" x2="261" y2="64.39252336448601" stroke="#374151" stroke-width="2"/>
  <line x1="249" y1="87.70093457943923" x2="261" y2="87.70093457943923" stroke="#374151" stroke-width="2"/>
  <text x="255" y="67.77570093457945" text-anchor="middle" font-size="12" font-weight="bold" fill="#374151">4.38</text>
  <text x="255" y="350" text-anchor="middle" font-size="11" fill="#374151">Completeness</text>
  <rect x="348.8888888888889" y="82.82242990654208" width="72.22222222222221" height="247.17757009345792" fill="#6366f1" rx="3" opacity="0.85"/>
  <line x1="385" y1="71.43925233644865" x2="385" y2="95.28971962616822" stroke="#374151" stroke-width="2"/>
  <line x1="379" y1="71.43925233644865" x2="391" y2="71.43925233644865" stroke="#374151" stroke-width="2"/>
  <line x1="379" y1="95.28971962616822" x2="391" y2="95.28971962616822" stroke="#374151" stroke-width="2"/>
  <text x="385" y="74.82242990654208" text-anchor="middle" font-size="12" font-weight="bold" fill="#374151">4.26</text>
  <text x="385" y="350" text-anchor="middle" font-size="11" fill="#374151">Grounding</text>
  <rect x="478.8888888888889" y="53.55140186915884" width="72.22222222222221" height="276.44859813084116" fill="#ec4899" rx="3" opacity="0.85"/>
  <line x1="515" y1="45.42056074766356" x2="515" y2="63.30841121495325" stroke="#374151" stroke-width="2"/>
  <line x1="509" y1="45.42056074766356" x2="521" y2="45.42056074766356" stroke="#374151" stroke-width="2"/>
  <line x1="509" y1="63.30841121495325" x2="521" y2="63.30841121495325" stroke="#374151" stroke-width="2"/>
  <text x="515" y="45.55140186915884" text-anchor="middle" font-size="12" font-weight="bold" fill="#374151">4.77</text>
  <text x="515" y="350" text-anchor="middle" font-size="11" fill="#374151">Safety</text>
  <text x="300" y="24" text-anchor="middle" font-size="14" font-weight="bold" fill="#111827">Response Quality Scores (1-5 scale, 95% CI)</text>

</svg>